<svg xmlns="http://www.w3.org/2000/svg" viewBox="0 0 64 80" x="0px" y="0px"><title>logout, reset, power</title><g><path d="M53.4209,32.2988A21.4209,21.4209,0,1,1,17.18,16.8291a2,2,0,0,1,2.77,2.8867,17.4209,17.4209,0,1,0,24.1016,0,2,2,0,0,1,2.77-2.8867A21.2533,21.2533,0,0,1,53.4209,32.2988ZM32,35.0449a2,2,0,0,0,2-2V12.2793a2,2,0,0,0-4,0V33.0449A2,2,0,0,0,32,35.0449Z"/></g><text x="0" y="79" fill="#000000" font-size="5px" font-weight="bold" font-family="'Helvetica Neue', Helvetica, Arial-Unicode, Arial, Sans-serif">Created by The Icon Z</text><text x="0" y="84" fill="#000000" font-size="5px" font-weight="bold" font-family="'Helvetica Neue', Helvetica, Arial-Unicode, Arial, Sans-serif">from the Noun Project</text></svg>