<svg xmlns="http://www.w3.org/2000/svg" data-name="Layer 1" viewBox="0 0 100 125" x="0px" y="0px"><title>09</title><g data-name="Group"><path data-name="Compound Path" d="M92.6,16.3,70.7,11.4A8.3,8.3,0,0,0,63.9,13a7.9,7.9,0,0,0-3,6.2V61.5a18,18,0,0,0-9-2.3c-9.4,0-17.1,6.6-17.1,14.8s7.7,14.8,17.1,14.8,17-6.7,17-14.8V19.2l22,4.9a4,4,0,1,0,1.7-7.8ZM51.9,80.8c-4.9,0-9.1-3.1-9.1-6.8s4.2-6.8,9.1-6.8,9,3.1,9,6.8S56.8,80.8,51.9,80.8Z"/><path data-name="Path" d="M21.7,25.8H47.4a4,4,0,0,0,0-8H21.7a4,4,0,0,0,0,8Z"/><path data-name="Path" d="M8.3,40.4H47.4a4,4,0,0,0,0-8H8.3a4,4,0,0,0,0,8Z"/><path data-name="Path" d="M51.4,51a4,4,0,0,0-4-4H21.7a4,4,0,0,0,0,8H47.4A4,4,0,0,0,51.4,51Z"/></g><text x="0" y="115" fill="#000000" font-size="5px" font-weight="bold" font-family="'Helvetica Neue', Helvetica, Arial-Unicode, Arial, Sans-serif">Created by Naveen</text><text x="0" y="120" fill="#000000" font-size="5px" font-weight="bold" font-family="'Helvetica Neue', Helvetica, Arial-Unicode, Arial, Sans-serif">from the Noun Project</text></svg>