<svg xmlns="http://www.w3.org/2000/svg" xmlns:xlink="http://www.w3.org/1999/xlink" version="1.1" x="0px" y="0px" viewBox="0 0 10 12.5" style="enable-background:new 0 0 10 10;" xml:space="preserve"><g><path d="M2.475,2.499h5.05c0.108,0,0.196-0.088,0.196-0.196S7.634,2.106,7.525,2.106h-5.05c-0.109,0-0.197,0.088-0.197,0.196   S2.366,2.499,2.475,2.499z"/><path d="M7.928,2.873H2.07C1.8,2.873,1.58,3.094,1.58,3.363v4.752c0,0.27,0.22,0.49,0.491,0.49h5.857   c0.27,0,0.492-0.221,0.492-0.49V3.363C8.42,3.094,8.197,2.873,7.928,2.873z M7.156,4.09v0.332v2.342   c0,0.339-0.337,0.613-0.752,0.613c-0.416,0-0.752-0.274-0.752-0.613s0.336-0.612,0.752-0.612c0.111,0,0.219,0.02,0.314,0.056V4.537   L4.348,5.152v2.226c0,0.338-0.338,0.613-0.754,0.613c-0.415,0-0.754-0.275-0.754-0.613s0.339-0.613,0.754-0.613   c0.113,0,0.219,0.021,0.315,0.058V5.265V4.704V4.329l3.247-0.843V4.09z"/><path d="M2.892,1.788h4.217c0.108,0,0.195-0.088,0.195-0.196c0-0.109-0.087-0.197-0.195-0.197H2.892   c-0.108,0-0.196,0.087-0.196,0.197C2.696,1.7,2.784,1.788,2.892,1.788z"/></g><text x="0" y="25" fill="#000000" font-size="5px" font-weight="bold" font-family="'Helvetica Neue', Helvetica, Arial-Unicode, Arial, Sans-serif">Created by Verry</text><text x="0" y="30" fill="#000000" font-size="5px" font-weight="bold" font-family="'Helvetica Neue', Helvetica, Arial-Unicode, Arial, Sans-serif">from the Noun Project</text></svg>